<svg width="19" height="22" viewBox="0 0 19 22" fill="none" xmlns="http://www.w3.org/2000/svg">
<path d="M4.08335 7V5C4.08335 3.67392 4.14567 1.93768 5.08335 1C6.02103 0.0623181 7.75727 0 9.08335 0C10.4094 0 12.1457 0.0623181 13.0833 1C14.021 1.93768 14.0833 3.67392 14.0833 5V7H17.0833C17.3486 7 17.8958 6.81246 18.0833 7C18.2709 7.18754 18.0833 7.73478 18.0833 8V20C18.0833 20.2652 18.2709 20.8125 18.0833 21C17.8958 21.1875 17.3486 21 17.0833 21H1.08335C0.818133 21 0.270886 21.1875 0.0833495 21C-0.104187 20.8125 0.0833495 20.2652 0.0833495 20V8C0.0833495 7.73478 -0.104187 7.18754 0.0833495 7C0.270886 6.81246 0.818133 7 1.08335 7H4.08335ZM4.08335 9H2.08335V19H16.0833V9H14.0833V11H12.0833V9H6.08335V11H4.08335V9ZM6.08335 7H12.0833V5C12.0833 4.20435 11.646 3.56261 11.0833 3C10.5207 2.43739 9.879 2 9.08335 2C8.2877 2 7.64596 2.43739 7.08335 3C6.52074 3.56261 6.08335 4.20435 6.08335 5V7Z" fill="#C4C4C4"/>
</svg>
