<svg width="97" height="17" viewBox="0 0 97 17" fill="none" xmlns="http://www.w3.org/2000/svg">
<path d="M1.77026e-05 12.6V5.24521e-06H2.30402V8.94601L9.07202 5.24521e-06H11.25V12.6H8.94602V3.67201L2.17802 12.6H1.77026e-05ZM14.5308 12.6V2.98801H16.7808V6.89401H21.6228V2.98801H23.8728V12.6H21.6228V8.80201H16.7808V12.6H14.5308ZM28.8862 12.6V4.35601L29.4082 4.89601H25.5022V2.98801H34.5022V4.89601H30.6142L31.1362 4.35601V12.6H28.8862ZM40.1944 12.726C39.1264 12.726 38.1904 12.516 37.3864 12.096C36.5944 11.664 35.9764 11.076 35.5324 10.332C35.1004 9.58801 34.8844 8.74201 34.8844 7.79401C34.8844 6.83401 35.0944 5.98801 35.5144 5.25601C35.9464 4.51201 36.5344 3.93001 37.2784 3.51001C38.0344 3.09001 38.8924 2.88001 39.8524 2.88001C40.7884 2.88001 41.6224 3.08401 42.3544 3.49201C43.0864 3.90001 43.6624 4.47601 44.0824 5.22001C44.5024 5.96401 44.7124 6.84001 44.7124 7.84801C44.7124 7.94401 44.7064 8.05201 44.6944 8.17201C44.6944 8.29201 44.6884 8.40601 44.6764 8.51401H36.6664V7.02001H43.4884L42.6064 7.48801C42.6184 6.93601 42.5044 6.45001 42.2644 6.03001C42.0244 5.61001 41.6944 5.28001 41.2744 5.04001C40.8664 4.80001 40.3924 4.68001 39.8524 4.68001C39.3004 4.68001 38.8144 4.80001 38.3944 5.04001C37.9864 5.28001 37.6624 5.61601 37.4224 6.04801C37.1944 6.46801 37.0804 6.96601 37.0804 7.54201V7.90201C37.0804 8.47801 37.2124 8.98801 37.4764 9.43201C37.7404 9.87601 38.1124 10.218 38.5924 10.458C39.0724 10.698 39.6244 10.818 40.2484 10.818C40.7884 10.818 41.2744 10.734 41.7064 10.566C42.1384 10.398 42.5224 10.134 42.8584 9.77401L44.0644 11.16C43.6324 11.664 43.0864 12.054 42.4264 12.33C41.7784 12.594 41.0344 12.726 40.1944 12.726ZM52.5014 12.726C51.7214 12.726 51.0074 12.546 50.3594 12.186C49.7234 11.826 49.2134 11.286 48.8294 10.566C48.4574 9.83401 48.2714 8.91001 48.2714 7.79401C48.2714 6.66601 48.4514 5.74201 48.8114 5.02201C49.1834 4.30201 49.6874 3.76801 50.3234 3.42001C50.9594 3.06001 51.6854 2.88001 52.5014 2.88001C53.4494 2.88001 54.2834 3.08401 55.0034 3.49201C55.7354 3.90001 56.3114 4.47001 56.7314 5.20201C57.1634 5.93401 57.3794 6.79801 57.3794 7.79401C57.3794 8.79001 57.1634 9.66001 56.7314 10.404C56.3114 11.136 55.7354 11.706 55.0034 12.114C54.2834 12.522 53.4494 12.726 52.5014 12.726ZM47.1734 16.092V2.98801H49.3154V5.25601L49.2434 7.81201L49.4234 10.368V16.092H47.1734ZM52.2494 10.8C52.7894 10.8 53.2694 10.68 53.6894 10.44C54.1214 10.2 54.4634 9.85201 54.7154 9.39601C54.9674 8.94001 55.0934 8.40601 55.0934 7.79401C55.0934 7.17001 54.9674 6.63601 54.7154 6.19201C54.4634 5.73601 54.1214 5.38801 53.6894 5.14801C53.2694 4.90801 52.7894 4.78801 52.2494 4.78801C51.7094 4.78801 51.2234 4.90801 50.7914 5.14801C50.3594 5.38801 50.0174 5.73601 49.7654 6.19201C49.5134 6.63601 49.3874 7.17001 49.3874 7.79401C49.3874 8.40601 49.5134 8.94001 49.7654 9.39601C50.0174 9.85201 50.3594 10.2 50.7914 10.44C51.2234 10.68 51.7094 10.8 52.2494 10.8ZM64.4427 6.15601C65.6787 6.15601 66.6207 6.43201 67.2687 6.98401C67.9167 7.53601 68.2407 8.31601 68.2407 9.32401C68.2407 10.368 67.8807 11.184 67.1607 11.772C66.4407 12.348 65.4267 12.63 64.1187 12.618L59.6187 12.6V2.98801H61.8687V6.13801L64.4427 6.15601ZM63.9207 10.962C64.5807 10.974 65.0847 10.836 65.4327 10.548C65.7807 10.26 65.9547 9.84001 65.9547 9.28801C65.9547 8.73601 65.7807 8.34001 65.4327 8.10001C65.0967 7.84801 64.5927 7.71601 63.9207 7.70401L61.8687 7.68601V10.944L63.9207 10.962ZM74.7003 12.726C73.6323 12.726 72.6963 12.516 71.8923 12.096C71.1003 11.664 70.4823 11.076 70.0383 10.332C69.6063 9.58801 69.3903 8.74201 69.3903 7.79401C69.3903 6.83401 69.6003 5.98801 70.0203 5.25601C70.4523 4.51201 71.0403 3.93001 71.7843 3.51001C72.5403 3.09001 73.3983 2.88001 74.3583 2.88001C75.2943 2.88001 76.1283 3.08401 76.8603 3.49201C77.5923 3.90001 78.1683 4.47601 78.5883 5.22001C79.0083 5.96401 79.2183 6.84001 79.2183 7.84801C79.2183 7.94401 79.2123 8.05201 79.2003 8.17201C79.2003 8.29201 79.1943 8.40601 79.1823 8.51401H71.1723V7.02001H77.9943L77.1123 7.48801C77.1243 6.93601 77.0103 6.45001 76.7703 6.03001C76.5303 5.61001 76.2003 5.28001 75.7803 5.04001C75.3723 4.80001 74.8983 4.68001 74.3583 4.68001C73.8063 4.68001 73.3203 4.80001 72.9003 5.04001C72.4923 5.28001 72.1683 5.61601 71.9283 6.04801C71.7003 6.46801 71.5863 6.96601 71.5863 7.54201V7.90201C71.5863 8.47801 71.7183 8.98801 71.9823 9.43201C72.2463 9.87601 72.6183 10.218 73.0983 10.458C73.5783 10.698 74.1303 10.818 74.7543 10.818C75.2943 10.818 75.7803 10.734 76.2123 10.566C76.6443 10.398 77.0283 10.134 77.3643 9.77401L78.5703 11.16C78.1383 11.664 77.5923 12.054 76.9323 12.33C76.2843 12.594 75.5403 12.726 74.7003 12.726ZM87.0072 12.726C86.2272 12.726 85.5132 12.546 84.8652 12.186C84.2292 11.826 83.7192 11.286 83.3352 10.566C82.9632 9.83401 82.7772 8.91001 82.7772 7.79401C82.7772 6.66601 82.9572 5.74201 83.3172 5.02201C83.6892 4.30201 84.1932 3.76801 84.8292 3.42001C85.4652 3.06001 86.1912 2.88001 87.0072 2.88001C87.9552 2.88001 88.7892 3.08401 89.5092 3.49201C90.2412 3.90001 90.8172 4.47001 91.2372 5.20201C91.6692 5.93401 91.8852 6.79801 91.8852 7.79401C91.8852 8.79001 91.6692 9.66001 91.2372 10.404C90.8172 11.136 90.2412 11.706 89.5092 12.114C88.7892 12.522 87.9552 12.726 87.0072 12.726ZM81.6792 16.092V2.98801H83.8212V5.25601L83.7492 7.81201L83.9292 10.368V16.092H81.6792ZM86.7552 10.8C87.2952 10.8 87.7752 10.68 88.1952 10.44C88.6272 10.2 88.9692 9.85201 89.2212 9.39601C89.4732 8.94001 89.5992 8.40601 89.5992 7.79401C89.5992 7.17001 89.4732 6.63601 89.2212 6.19201C88.9692 5.73601 88.6272 5.38801 88.1952 5.14801C87.7752 4.90801 87.2952 4.78801 86.7552 4.78801C86.2152 4.78801 85.7292 4.90801 85.2972 5.14801C84.8652 5.38801 84.5232 5.73601 84.2712 6.19201C84.0192 6.63601 83.8932 7.17001 83.8932 7.79401C83.8932 8.40601 84.0192 8.94001 84.2712 9.39601C84.5232 9.85201 84.8652 10.2 85.2972 10.44C85.7292 10.68 86.2152 10.8 86.7552 10.8ZM94.6503 12.726C94.2423 12.726 93.8943 12.588 93.6063 12.312C93.3183 12.024 93.1743 11.664 93.1743 11.232C93.1743 10.776 93.3183 10.416 93.6063 10.152C93.8943 9.87601 94.2423 9.73801 94.6503 9.73801C95.0583 9.73801 95.4063 9.87601 95.6943 10.152C95.9823 10.416 96.1263 10.776 96.1263 11.232C96.1263 11.664 95.9823 12.024 95.6943 12.312C95.4063 12.588 95.0583 12.726 94.6503 12.726Z" fill="white"/>
</svg>
